<mxfile host="app.diagrams.net" agent="Mozilla/5.0 (X11; Linux x86_64; rv:139.0) Gecko/20100101 Firefox/139.0" version="27.2.0">
  <diagram name="Page-1" id="e3a06f82-3646-2815-327d-82caf3d4e204">
    <mxGraphModel dx="2066" dy="1168" grid="1" gridSize="10" guides="1" tooltips="1" connect="1" arrows="1" fold="1" page="1" pageScale="1.5" pageWidth="1169" pageHeight="826" background="none" math="0" shadow="0">
      <root>
        <mxCell id="0" style=";html=1;" />
        <mxCell id="1" style=";html=1;" parent="0" />
        <mxCell id="6a7d8f32e03d9370-1" value="" style="verticalLabelPosition=bottom;aspect=fixed;html=1;verticalAlign=top;strokeColor=none;shape=mxgraph.citrix.laptop_2;fillColor=#66B2FF;gradientColor=#0066CC;fontSize=14;" parent="1" vertex="1">
          <mxGeometry x="538.9999999999999" y="75.5" width="116" height="86.5" as="geometry" />
        </mxCell>
        <mxCell id="6a7d8f32e03d9370-6" value="" style="verticalLabelPosition=bottom;aspect=fixed;html=1;verticalAlign=top;strokeColor=none;shape=mxgraph.citrix.pda;fillColor=#66B2FF;gradientColor=#0066CC;fontSize=14;" parent="1" vertex="1">
          <mxGeometry x="500.00000000000006" y="101" width="30" height="61" as="geometry" />
        </mxCell>
        <mxCell id="L6lRWaiFYsqNyg9JIEbJ-8" value="Virtual or physical machine with public IP address" style="rounded=1;whiteSpace=wrap;html=1;shadow=0;comic=0;strokeColor=#036897;strokeWidth=2;fillColor=none;fontFamily=Verdana;fontSize=28;fontColor=#6881B3;align=center;arcSize=11;verticalAlign=top;" parent="1" vertex="1">
          <mxGeometry x="776" y="108" width="348" height="462" as="geometry" />
        </mxCell>
        <mxCell id="lR0B9XfGnUbkfMmpugOI-1" value="" style="rounded=0;whiteSpace=wrap;html=1;" vertex="1" parent="1">
          <mxGeometry x="830" y="224.5" width="230" height="335.5" as="geometry" />
        </mxCell>
        <mxCell id="L6lRWaiFYsqNyg9JIEbJ-59" value="&lt;div&gt;Calling Services&lt;/div&gt;" style="rounded=0;whiteSpace=wrap;html=1;fontSize=16;" parent="1" vertex="1">
          <mxGeometry x="865" y="480" width="160" height="64" as="geometry" />
        </mxCell>
        <UserObject label="https://wire-app.example.com&lt;br&gt;&lt;div&gt;https://wire-api.example.com&lt;/div&gt;(...)" link="https://wire-app.example.comhttps://wire-api.example.com(...)" id="L6lRWaiFYsqNyg9JIEbJ-68">
          <mxCell style="text;html=1;fontSize=16;" parent="1" vertex="1">
            <mxGeometry x="347" y="274" width="250" height="30" as="geometry" />
          </mxCell>
        </UserObject>
        <mxCell id="L6lRWaiFYsqNyg9JIEbJ-69" value="Wire (Mobile, Desktop or Browser) Client" style="text;html=1;strokeColor=none;fillColor=none;align=center;verticalAlign=middle;whiteSpace=wrap;rounded=0;fontSize=16;" parent="1" vertex="1">
          <mxGeometry x="415" y="170.5" width="320" height="20" as="geometry" />
        </mxCell>
        <mxCell id="L6lRWaiFYsqNyg9JIEbJ-71" value="" style="endArrow=classic;html=1;fontSize=16;exitX=0.5;exitY=1;exitDx=0;exitDy=0;edgeStyle=orthogonalEdgeStyle;" parent="1" source="L6lRWaiFYsqNyg9JIEbJ-69" target="L6lRWaiFYsqNyg9JIEbJ-8" edge="1">
          <mxGeometry width="50" height="50" relative="1" as="geometry">
            <mxPoint x="525" y="393" as="sourcePoint" />
            <mxPoint x="650" y="305" as="targetPoint" />
          </mxGeometry>
        </mxCell>
        <mxCell id="OI5r5fzGcLIYCIhBnp5a-3" value="nginx ingress&lt;br style=&quot;font-size: 18px;&quot;&gt;(pod)" style="rounded=0;whiteSpace=wrap;html=1;fontSize=18;" parent="1" vertex="1">
          <mxGeometry x="844" y="284.5" width="64" height="141" as="geometry" />
        </mxCell>
        <mxCell id="OI5r5fzGcLIYCIhBnp5a-4" value="" style="rounded=0;whiteSpace=wrap;html=1;fontSize=18;" parent="1" vertex="1">
          <mxGeometry x="935" y="275" width="100" height="80" as="geometry" />
        </mxCell>
        <mxCell id="OI5r5fzGcLIYCIhBnp5a-5" value="wire-server components&lt;br style=&quot;font-size: 18px;&quot;&gt;(pods)" style="rounded=0;whiteSpace=wrap;html=1;fontSize=18;" parent="1" vertex="1">
          <mxGeometry x="945" y="285.5" width="100" height="79" as="geometry" />
        </mxCell>
        <mxCell id="OI5r5fzGcLIYCIhBnp5a-6" value="in-memory databases&lt;br style=&quot;font-size: 18px;&quot;&gt;(pods)" style="rounded=0;whiteSpace=wrap;html=1;fontSize=18;" parent="1" vertex="1">
          <mxGeometry x="930" y="380" width="100" height="80" as="geometry" />
        </mxCell>
        <mxCell id="lR0B9XfGnUbkfMmpugOI-2" value="&lt;div&gt;&lt;font style=&quot;font-size: 24px;&quot;&gt;&lt;b&gt;Kubernetes&lt;/b&gt;&lt;/font&gt;&lt;/div&gt;" style="text;html=1;align=center;verticalAlign=middle;whiteSpace=wrap;rounded=0;" vertex="1" parent="1">
          <mxGeometry x="865" y="240" width="160" height="30" as="geometry" />
        </mxCell>
      </root>
    </mxGraphModel>
  </diagram>
</mxfile>
